<svg width="274" height="30" viewBox="0 0 274 30" fill="none" xmlns="http://www.w3.org/2000/svg">
<g clip-path="url(#clip0_4213_56)">
<path d="M12.5971 1.14258C18.8859 1.14258 25.1683 5.40082 25.1683 13.9235C25.1683 18.0816 23.6651 21.2189 21.3976 23.3543C20.6647 24.0556 20.5269 24.9261 21.0844 25.6963L21.5354 26.3225C22.1304 27.193 21.9926 28.2074 21.1533 28.8712C20.7336 29.2219 20.2827 29.3597 19.8254 29.3597C19.2304 29.3597 18.6729 29.0779 18.2532 28.4892L17.6957 27.6501C17.0694 26.7797 15.9169 26.3601 14.7268 26.5354C14.0252 26.6419 13.2924 26.7108 12.5971 26.7108C6.27703 26.7108 -0.0117188 22.4525 -0.0117188 13.9298C-0.0117188 5.40708 6.27703 1.14884 12.5971 1.14884V1.14258ZM12.8414 22.4776C13.5053 22.4776 13.712 22.0205 13.33 21.4631C12.7036 20.5927 12.8414 19.6095 13.6431 18.952L13.8185 18.8456C14.2006 18.5325 14.6203 18.3884 15.0399 18.3884C15.5974 18.3884 16.1236 18.6702 16.5056 19.2276C16.9629 19.8538 17.5204 20.1731 18.0403 20.1731C18.4223 20.1731 18.8107 19.9978 19.1239 19.6471C20.314 18.2507 21.0781 16.3282 21.0781 13.9235C21.0781 8.19998 16.8188 5.3695 12.5908 5.3695C8.36284 5.3695 4.10353 8.19998 4.10353 13.9235C4.10353 19.1587 7.69889 22.4776 12.8351 22.4776H12.8414Z" fill="#231F20"/>
<path d="M29.5703 3.79703V3.51523C29.5703 2.43189 30.3032 1.69922 31.3868 1.69922H43.5759C44.6596 1.69922 45.3924 2.43189 45.3924 3.51523V3.79703C45.3924 4.88037 44.6596 5.61304 43.5759 5.61304H31.3868C30.3032 5.61304 29.5703 4.88037 29.5703 3.79703ZM29.5703 13.7788C29.5703 12.6955 30.3032 11.9628 31.3868 11.9628H43.5759C44.6596 11.9628 45.3924 12.6955 45.3924 13.7788V14.0606C45.3924 15.144 44.6596 15.8766 43.5759 15.8766H31.3868C30.3032 15.8766 29.5703 15.144 29.5703 14.0606V13.7788ZM31.3868 22.2327H43.5759C44.6596 22.2327 45.3924 22.9653 45.3924 24.0487V24.3305C45.3924 25.4138 44.6596 26.1465 43.5759 26.1465H31.3868C30.3032 26.1465 29.5703 25.4138 29.5703 24.3305V24.0487C29.5703 22.9653 30.3032 22.2327 31.3868 22.2327Z" fill="#E8262B"/>
<path d="M70.0168 22.5199C68.7953 22.5199 67.6553 22.2945 66.603 21.8373C65.5445 21.3802 64.6174 20.754 63.822 19.9462C63.0265 19.1384 62.4001 18.2053 61.9554 17.1408C61.5107 16.0762 61.2852 14.9302 61.2852 13.7154C61.2852 12.5005 61.5107 11.3608 61.9554 10.3025C62.4001 9.24424 63.0202 8.31745 63.8094 7.50964C64.5987 6.70183 65.5194 6.08186 66.5655 5.63098C67.6115 5.18637 68.7515 4.96094 69.9666 4.96094C71.1818 4.96094 72.3218 5.18637 73.3678 5.63098C74.4139 6.07559 75.3409 6.70183 76.1364 7.50964C76.9319 8.31745 77.5582 9.2505 78.003 10.3151C78.4477 11.3796 78.6732 12.5256 78.6732 13.7404C78.6732 14.9553 78.4477 16.1013 78.003 17.1658C77.5582 18.2304 76.9381 19.1634 76.1489 19.9587C75.3597 20.754 74.4389 21.3802 73.3929 21.8373C72.3468 22.2945 71.2194 22.5199 70.0168 22.5199ZM69.9666 19.8335C71.1192 19.8335 72.1339 19.5705 73.0045 19.0507C73.8752 18.531 74.5579 17.8108 75.0528 16.8903C75.5476 15.9698 75.7981 14.9115 75.7981 13.7091C75.7981 12.8136 75.6541 11.9996 75.3722 11.2544C75.0903 10.5155 74.6832 9.87045 74.1633 9.32565C73.6434 8.78085 73.0296 8.36128 72.3218 8.06697C71.614 7.77265 70.831 7.62862 69.9666 7.62862C68.8267 7.62862 67.8245 7.88536 66.9538 8.39886C66.0832 8.91235 65.4004 9.61997 64.9056 10.5342C64.4107 11.4422 64.1602 12.5005 64.1602 13.7029C64.1602 14.5983 64.3043 15.4249 64.5861 16.1764C64.868 16.9341 65.2689 17.5791 65.7825 18.1177C66.2961 18.6562 66.91 19.0758 67.624 19.3763C68.3381 19.6769 69.121 19.8272 69.9666 19.8272V19.8335ZM77.8276 23.4467L70.142 15.7631L71.946 13.9596L79.6315 21.6432L77.8276 23.4467Z" fill="#231F20"/>
<path d="M86.583 22.5208C85.5934 22.5208 84.7102 22.3016 83.9335 21.8633C83.163 21.4249 82.5617 20.8175 82.1295 20.0472C81.6973 19.277 81.4844 18.3878 81.4844 17.3733V10.5664H84.1652V17.2481C84.1652 17.8179 84.2592 18.3001 84.4471 18.7009C84.635 19.1017 84.9106 19.4022 85.2739 19.6152C85.6372 19.8281 86.0757 19.9345 86.5768 19.9345C87.3597 19.9345 87.9548 19.7028 88.3682 19.2394C88.7816 18.776 88.9883 18.1123 88.9883 17.2543V10.5727H91.6692V17.3796C91.6692 18.4066 91.4562 19.3021 91.024 20.0723C90.5918 20.8425 89.9967 21.4437 89.2326 21.8758C88.4684 22.3079 87.579 22.5208 86.5705 22.5208H86.583Z" fill="#231F20"/>
<path d="M99.2936 22.5213C98.235 22.5213 97.2829 22.252 96.4248 21.7135C95.5729 21.1749 94.8965 20.4485 94.4016 19.528C93.9068 18.6074 93.6562 17.5805 93.6562 16.4408C93.6562 15.301 93.9068 14.249 94.4016 13.3285C94.8965 12.408 95.5729 11.6753 96.4248 11.1305C97.2767 10.5857 98.235 10.3164 99.2936 10.3164C100.189 10.3164 100.979 10.5105 101.674 10.8925C102.363 11.2745 102.914 11.8005 103.321 12.4643C103.728 13.1344 103.929 13.8858 103.929 14.7312V18.1002C103.929 18.9456 103.728 19.7033 103.334 20.3671C102.933 21.0371 102.388 21.5569 101.686 21.9389C100.985 22.3209 100.189 22.515 99.2936 22.515V22.5213ZM99.7383 19.9851C100.728 19.9851 101.53 19.6532 102.144 18.9832C102.751 18.3194 103.058 17.4615 103.058 16.422C103.058 15.7206 102.92 15.1069 102.645 14.5684C102.369 14.0298 101.981 13.6103 101.486 13.3097C100.991 13.0091 100.409 12.8588 99.7446 12.8588C99.0806 12.8588 98.5231 13.0091 98.022 13.3097C97.5272 13.6103 97.1326 14.0298 96.8507 14.5684C96.5689 15.1069 96.4248 15.7206 96.4248 16.422C96.4248 17.1233 96.5689 17.737 96.8507 18.2756C97.1326 18.8141 97.5272 19.2337 98.022 19.5342C98.5169 19.8348 99.0931 19.9851 99.7446 19.9851H99.7383ZM102.883 22.277V19.1335L103.346 16.2779L102.883 13.4475V10.5669H105.564V22.277H102.883Z" fill="#231F20"/>
<path d="M108.547 22.2762V4.71094H111.228V22.2762H108.547Z" fill="#231F20"/>
<path d="M115.565 8.41796C115.108 8.41796 114.732 8.26141 114.431 7.95457C114.131 7.64772 113.98 7.26574 113.98 6.8086C113.98 6.35147 114.131 5.96946 114.431 5.66261C114.732 5.35577 115.108 5.19922 115.565 5.19922C116.022 5.19922 116.417 5.35577 116.711 5.66261C117.006 5.96946 117.15 6.35147 117.15 6.8086C117.15 7.26574 117.006 7.64772 116.711 7.95457C116.417 8.26141 116.035 8.41796 115.565 8.41796ZM114.225 22.276V10.5659H116.906V22.276H114.225Z" fill="#231F20"/>
<path d="M118.887 13.0079V10.5657H127.18V13.0079H118.887ZM121.693 22.2758V5.6875H124.38V22.2758H121.693Z" fill="#231F20"/>
<path d="M132.915 22.3955L127.91 10.5664H130.86L134.274 19.252H133.422L137.03 10.5664H140.005L134.562 22.3955H132.902H132.915ZM129.426 27.1547L133.059 19.6653L134.575 22.3955L132.401 27.1547H129.426Z" fill="#231F20"/>
<path d="M147.016 22.276V5.19922H149.822V22.276H147.016ZM148.945 7.76044V5.19922H158.384V7.76044H148.945ZM148.945 14.7865V12.3255H157.683V14.7865H148.945ZM148.945 22.276V19.7148H158.51V22.276H148.945Z" fill="#231F20"/>
<path d="M161.047 22.2762V10.5661H163.728V22.2762H161.047ZM169.077 22.2762V15.5194C169.077 14.7367 168.826 14.0979 168.332 13.5907C167.837 13.0897 167.198 12.833 166.415 12.833C165.895 12.833 165.431 12.9457 165.024 13.1774C164.617 13.4028 164.298 13.7222 164.072 14.1292C163.847 14.5363 163.728 14.9997 163.728 15.5194L162.682 14.937C162.682 14.0416 162.876 13.2525 163.264 12.5574C163.653 11.8686 164.198 11.3238 164.887 10.923C165.576 10.5223 166.352 10.3281 167.217 10.3281C168.081 10.3281 168.876 10.5536 169.559 10.9982C170.242 11.4428 170.781 12.0252 171.169 12.7328C171.557 13.4404 171.752 14.1731 171.752 14.9433V22.2825H169.071L169.077 22.2762Z" fill="#231F20"/>
<path d="M179.249 22.0324C178.209 22.0324 177.269 21.7757 176.43 21.2622C175.591 20.7487 174.933 20.0473 174.451 19.1518C173.968 18.2564 173.73 17.2544 173.73 16.1523C173.73 15.0502 173.968 14.0545 174.451 13.1778C174.933 12.3011 175.591 11.606 176.43 11.0925C177.269 10.579 178.209 10.3223 179.249 10.3223C180.176 10.3223 180.99 10.5101 181.692 10.8859C182.393 11.2616 182.938 11.7751 183.326 12.4326C183.715 13.0901 183.909 13.8604 183.909 14.7371V17.6176C183.909 18.4818 183.709 19.2458 183.314 19.9096C182.913 20.5796 182.368 21.0994 181.667 21.4688C180.965 21.8446 180.163 22.0324 179.249 22.0324ZM179.368 27.399C178.134 27.399 177.05 27.1736 176.123 26.729C175.196 26.2844 174.451 25.6519 173.881 24.8378L175.635 23.0844C176.104 23.6668 176.643 24.1114 177.244 24.3995C177.846 24.6938 178.572 24.8378 179.418 24.8378C180.476 24.8378 181.316 24.5623 181.93 24.0175C182.55 23.4727 182.857 22.7275 182.857 21.7882V18.9076L183.32 16.3214L182.857 13.7101V10.5602H185.544V21.7819C185.544 22.9028 185.281 23.886 184.761 24.7189C184.241 25.558 183.514 26.2092 182.587 26.6852C181.66 27.1548 180.589 27.3928 179.368 27.3928V27.399ZM179.781 19.4963C180.433 19.4963 181.003 19.3585 181.491 19.083C181.98 18.8074 182.356 18.4192 182.625 17.9245C182.894 17.4298 183.026 16.8474 183.026 16.1836C183.026 15.5198 182.894 14.9374 182.625 14.4427C182.356 13.948 181.98 13.5598 181.491 13.2842C181.003 13.0087 180.433 12.8709 179.781 12.8709C179.13 12.8709 178.554 13.0087 178.059 13.2842C177.564 13.5598 177.176 13.948 176.9 14.4427C176.624 14.9374 176.486 15.5198 176.486 16.1836C176.486 16.8474 176.624 17.411 176.9 17.9182C177.176 18.4254 177.564 18.8137 178.059 19.0892C178.554 19.3648 179.13 19.5025 179.781 19.5025V19.4963Z" fill="#231F20"/>
<path d="M189.885 8.41796C189.428 8.41796 189.052 8.26141 188.752 7.95457C188.451 7.64772 188.301 7.26574 188.301 6.8086C188.301 6.35147 188.451 5.96946 188.752 5.66261C189.052 5.35577 189.428 5.19922 189.885 5.19922C190.343 5.19922 190.737 5.35577 191.032 5.66261C191.326 5.96946 191.47 6.35147 191.47 6.8086C191.47 7.26574 191.326 7.64772 191.032 7.95457C190.737 8.26141 190.355 8.41796 189.885 8.41796ZM188.545 22.276V10.5659H191.226V22.276H188.545Z" fill="#231F20"/>
<path d="M194.223 22.2762V10.5661H196.904V22.2762H194.223ZM202.253 22.2762V15.5194C202.253 14.7367 202.002 14.0979 201.507 13.5907C201.012 13.0897 200.374 12.833 199.591 12.833C199.071 12.833 198.607 12.9457 198.2 13.1774C197.793 13.4028 197.474 13.7222 197.248 14.1292C197.023 14.5363 196.904 14.9997 196.904 15.5194L195.857 14.937C195.857 14.0416 196.052 13.2525 196.44 12.5574C196.828 11.8686 197.373 11.3238 198.062 10.923C198.751 10.5223 199.528 10.3281 200.392 10.3281C201.257 10.3281 202.052 10.5536 202.735 10.9982C203.418 11.4428 203.956 12.0252 204.345 12.7328C204.733 13.4404 204.927 14.1731 204.927 14.9433V22.2825H202.246L202.253 22.2762Z" fill="#231F20"/>
<path d="M213.109 22.5197C211.938 22.5197 210.885 22.2567 209.952 21.7244C209.019 21.1984 208.28 20.4657 207.735 19.5389C207.19 18.6122 206.914 17.5726 206.914 16.4142C206.914 15.2557 207.183 14.2224 207.722 13.3019C208.261 12.3814 208.987 11.6549 209.908 11.1164C210.829 10.5779 211.85 10.3086 212.971 10.3086C214.092 10.3086 215.026 10.5591 215.865 11.0663C216.704 11.5735 217.362 12.2624 217.838 13.1391C218.32 14.0158 218.558 15.0177 218.558 16.1386C218.558 16.3327 218.546 16.5331 218.521 16.7335C218.496 16.9339 218.458 17.1593 218.408 17.4036H208.793V15.2056H217.017L216.015 16.0823C215.984 15.3684 215.846 14.7672 215.602 14.2788C215.358 13.7903 215.013 13.4146 214.562 13.1579C214.117 12.8948 213.566 12.7696 212.915 12.7696C212.232 12.7696 211.637 12.9136 211.136 13.208C210.635 13.5023 210.24 13.9093 209.964 14.4416C209.689 14.9676 209.551 15.6001 209.551 16.3327C209.551 17.0654 209.695 17.7041 209.99 18.2615C210.284 18.8125 210.697 19.2384 211.236 19.5452C211.775 19.8521 212.389 19.9961 213.09 19.9961C213.691 19.9961 214.249 19.8896 214.762 19.6767C215.276 19.4638 215.708 19.157 216.065 18.7499L217.775 20.4845C217.205 21.1546 216.516 21.6555 215.702 21.9937C214.888 22.3381 214.03 22.5072 213.115 22.5072L213.109 22.5197Z" fill="#231F20"/>
<path d="M226.14 22.5197C224.969 22.5197 223.917 22.2567 222.983 21.7244C222.05 21.1984 221.311 20.4657 220.766 19.5389C220.221 18.6122 219.945 17.5726 219.945 16.4142C219.945 15.2557 220.215 14.2224 220.753 13.3019C221.292 12.3814 222.019 11.6549 222.939 11.1164C223.86 10.5779 224.881 10.3086 226.002 10.3086C227.124 10.3086 228.057 10.5591 228.896 11.0663C229.735 11.5735 230.393 12.2624 230.869 13.1391C231.351 14.0158 231.59 15.0177 231.59 16.1386C231.59 16.3327 231.577 16.5331 231.552 16.7335C231.527 16.9339 231.489 17.1593 231.439 17.4036H221.824V15.2056H230.049L229.046 16.0823C229.015 15.3684 228.877 14.7672 228.633 14.2788C228.389 13.7903 228.044 13.4146 227.593 13.1579C227.149 12.8948 226.597 12.7696 225.946 12.7696C225.263 12.7696 224.668 12.9136 224.167 13.208C223.666 13.5023 223.271 13.9093 222.996 14.4416C222.72 14.9676 222.582 15.6001 222.582 16.3327C222.582 17.0654 222.726 17.7041 223.021 18.2615C223.315 18.8125 223.729 19.2384 224.267 19.5452C224.806 19.8521 225.42 19.9961 226.121 19.9961C226.723 19.9961 227.28 19.8896 227.794 19.6767C228.307 19.4638 228.74 19.157 229.097 18.7499L230.807 20.4845C230.237 21.1546 229.548 21.6555 228.733 21.9937C227.919 22.3381 227.061 22.5072 226.146 22.5072L226.14 22.5197Z" fill="#231F20"/>
<path d="M233.73 22.2766V10.5665H236.411V22.2766H233.73ZM236.411 15.764L235.484 15.3006C235.484 13.8228 235.816 12.6205 236.474 11.6999C237.132 10.7794 238.128 10.3223 239.462 10.3223C240.044 10.3223 240.577 10.4287 241.046 10.6416C241.516 10.8545 241.955 11.1927 242.362 11.6686L240.608 13.4721C240.395 13.2467 240.163 13.0839 239.9 12.9837C239.637 12.8835 239.336 12.8396 238.998 12.8396C238.247 12.8396 237.633 13.0776 237.144 13.5473C236.656 14.0169 236.411 14.7558 236.411 15.764Z" fill="#231F20"/>
<path d="M245.026 8.41796C244.569 8.41796 244.193 8.26141 243.892 7.95457C243.592 7.64772 243.441 7.26574 243.441 6.8086C243.441 6.35147 243.592 5.96946 243.892 5.66261C244.193 5.35577 244.569 5.19922 245.026 5.19922C245.483 5.19922 245.878 5.35577 246.172 5.66261C246.467 5.96946 246.611 6.35147 246.611 6.8086C246.611 7.26574 246.467 7.64772 246.172 7.95457C245.878 8.26141 245.496 8.41796 245.026 8.41796ZM243.686 22.276V10.5659H246.367V22.276H243.686Z" fill="#231F20"/>
<path d="M249.363 22.2762V10.5661H252.044V22.2762H249.363ZM257.393 22.2762V15.5194C257.393 14.7367 257.143 14.0979 256.648 13.5907C256.153 13.0897 255.514 12.833 254.731 12.833C254.211 12.833 253.748 12.9457 253.341 13.1774C252.934 13.4028 252.614 13.7222 252.389 14.1292C252.163 14.5363 252.044 14.9997 252.044 15.5194L250.998 14.937C250.998 14.0416 251.192 13.2525 251.581 12.5574C251.969 11.8686 252.514 11.3238 253.203 10.923C253.892 10.5223 254.669 10.3281 255.533 10.3281C256.397 10.3281 257.193 10.5536 257.876 10.9982C258.558 11.4428 259.097 12.0252 259.485 12.7328C259.874 13.4404 260.068 14.1731 260.068 14.9433V22.2825H257.387L257.393 22.2762Z" fill="#231F20"/>
<path d="M267.569 22.0324C266.529 22.0324 265.59 21.7757 264.75 21.2622C263.911 20.7487 263.253 20.0473 262.771 19.1518C262.289 18.2564 262.051 17.2544 262.051 16.1523C262.051 15.0502 262.289 14.0545 262.771 13.1778C263.253 12.3011 263.911 11.606 264.75 11.0925C265.59 10.579 266.529 10.3223 267.569 10.3223C268.496 10.3223 269.31 10.5101 270.012 10.8859C270.713 11.2616 271.258 11.7751 271.647 12.4326C272.035 13.0901 272.229 13.8604 272.229 14.7371V17.6176C272.229 18.4818 272.029 19.2458 271.634 19.9096C271.233 20.5796 270.688 21.0994 269.987 21.4688C269.285 21.8446 268.484 22.0324 267.569 22.0324ZM267.694 27.399C266.46 27.399 265.377 27.1736 264.45 26.729C263.523 26.2844 262.777 25.6519 262.207 24.8378L263.961 23.0844C264.431 23.6668 264.97 24.1114 265.571 24.3995C266.172 24.6938 266.899 24.8378 267.744 24.8378C268.803 24.8378 269.642 24.5623 270.256 24.0175C270.876 23.4727 271.183 22.7275 271.183 21.7882V18.9076L271.647 16.3214L271.183 13.7101V10.5602H273.87V21.7819C273.87 22.9028 273.607 23.886 273.087 24.7189C272.568 25.558 271.841 26.2092 270.914 26.6852C269.987 27.1548 268.916 27.3928 267.694 27.3928V27.399ZM268.108 19.4963C268.759 19.4963 269.329 19.3585 269.818 19.083C270.306 18.8074 270.682 18.4192 270.951 17.9245C271.221 17.4298 271.352 16.8474 271.352 16.1836C271.352 15.5198 271.221 14.9374 270.951 14.4427C270.682 13.948 270.306 13.5598 269.818 13.2842C269.329 13.0087 268.759 12.8709 268.108 12.8709C267.456 12.8709 266.88 13.0087 266.385 13.2842C265.89 13.5598 265.502 13.948 265.226 14.4427C264.951 14.9374 264.813 15.5198 264.813 16.1836C264.813 16.8474 264.951 17.411 265.226 17.9182C265.502 18.4254 265.89 18.8137 266.385 19.0892C266.88 19.3648 267.456 19.5025 268.108 19.5025V19.4963Z" fill="#231F20"/>
</g>
<defs>
<clipPath id="clip0_4213_56">
<rect width="274" height="28.2839" fill="white" transform="translate(0 0.857422)"/>
</clipPath>
</defs>
</svg>
