<svg width="47" height="29" viewBox="0 0 47 29" fill="none" xmlns="http://www.w3.org/2000/svg">
  <path d="M13.597.14c6.289 0 12.571 4.259 12.571 12.782 0 4.158-1.503 7.295-3.77 9.43-.733.702-.871 1.572-.314 2.342l.451.627c.595.87.458 1.884-.382 2.548-.42.35-.87.489-1.328.489-.595 0-1.152-.282-1.572-.87l-.557-.84c-.627-.87-1.78-1.29-2.97-1.114-.7.106-1.434.175-2.129.175-6.32 0-12.609-4.258-12.609-12.781S7.277.147 13.598.147V.14Zm.244 21.336c.664 0 .871-.457.489-1.015-.626-.87-.489-1.853.313-2.51l.175-.107a1.905 1.905 0 0 1 1.222-.457c.557 0 1.084.281 1.466.839.457.626 1.014.945 1.534.945.382 0 .77-.175 1.084-.526 1.19-1.396 1.954-3.319 1.954-5.723 0-5.724-4.26-8.554-8.487-8.554-4.228 0-8.487 2.83-8.487 8.554 0 5.235 3.595 8.554 8.731 8.554h.006Z" fill="#231F20"/>
  <path d="M30.57 2.797v-.282c0-1.083.733-1.816 1.817-1.816h12.189c1.084 0 1.816.733 1.816 1.816v.282c0 1.083-.732 1.816-1.816 1.816h-12.19c-1.083 0-1.816-.733-1.816-1.816Zm0 9.982c0-1.084.733-1.816 1.817-1.816h12.189c1.084 0 1.816.732 1.816 1.816v.282c0 1.083-.732 1.816-1.816 1.816h-12.19c-1.083 0-1.816-.733-1.816-1.816v-.282Zm1.817 8.454h12.189c1.084 0 1.816.732 1.816 1.816v.282c0 1.083-.732 1.816-1.816 1.816h-12.19c-1.083 0-1.816-.733-1.816-1.816v-.282c0-1.084.733-1.816 1.817-1.816Z" fill="#E8262B"/>
</svg>
