<svg width="33" height="20" viewBox="0 0 33 20" fill="none" xmlns="http://www.w3.org/2000/svg">
<path d="M8.93674 0C13.394 0 17.8468 3.01887 17.8468 9.06104C17.8468 12.0089 16.7814 14.2331 15.1743 15.7469C14.6548 16.2442 14.5572 16.8613 14.9523 17.4073L15.2719 17.8513C15.6937 18.4684 15.596 19.1876 15.0011 19.6582C14.7037 19.9068 14.384 20.0044 14.0599 20.0044C13.6382 20.0044 13.2431 19.8047 12.9456 19.3873L12.5505 18.7925C12.1065 18.1754 11.2897 17.8779 10.4462 18.0022C9.94895 18.0777 9.42952 18.1265 8.93674 18.1265C4.45727 18.1221 0 15.0988 0 9.06104C0 3.02331 4.45727 0 8.93674 0ZM9.10988 15.1254C9.58047 15.1254 9.72697 14.8013 9.45616 14.4062C9.01221 13.7891 9.10988 13.0921 9.67814 12.626L9.80244 12.5505C10.0733 12.3285 10.3707 12.2264 10.6681 12.2264C11.0633 12.2264 11.4362 12.4262 11.707 12.8213C12.0311 13.2653 12.4262 13.4917 12.7947 13.4917C13.0655 13.4917 13.3407 13.3674 13.5627 13.1188C14.4062 12.1287 14.9478 10.7658 14.9478 9.06104C14.9478 5.00333 11.929 2.99667 8.9323 2.99667C5.93563 2.99667 2.91676 5.00333 2.91676 9.06104C2.91676 12.7725 5.46504 15.1254 9.10544 15.1254H9.10988Z" fill="#7E8384"/>
<path d="M20.9688 1.88177V1.68199C20.9688 0.913954 21.4882 0.394531 22.2562 0.394531H30.8955C31.6635 0.394531 32.183 0.913954 32.183 1.68199V1.88177C32.183 2.6498 31.6635 3.16923 30.8955 3.16923H22.2562C21.4882 3.16923 20.9688 2.6498 20.9688 1.88177ZM20.9688 8.96279C20.9688 8.19475 21.4882 7.67533 22.2562 7.67533H30.8955C31.6635 7.67533 32.183 8.19475 32.183 8.96279V9.16257C32.183 9.9306 31.6635 10.45 30.8955 10.45H22.2562C21.4882 10.45 20.9688 9.9306 20.9688 9.16257V8.96279ZM22.2562 14.9517H30.8955C31.6635 14.9517 32.183 15.4711 32.183 16.2391V16.4389C32.183 17.207 31.6635 17.7264 30.8955 17.7264H22.2562C21.4882 17.7264 20.9688 17.207 20.9688 16.4389V16.2391C20.9688 15.4711 21.4882 14.9517 22.2562 14.9517Z" fill="#7E8384"/>
</svg>
