<svg width="1112" height="1112" viewBox="0 0 1112 1112" fill="none" xmlns="http://www.w3.org/2000/svg">
  <circle cx="555.5" cy="555.5" r="185" stroke="#3A3F41"/>
  <path d="M555.5 370a185.499 185.499 0 0 0-131.168 316.668A185.499 185.499 0 0 0 555.5 741V370Z" fill="#3A3F41"/>
  <circle cx="555.5" cy="926.5" r="185" transform="rotate(90 555.5 926.5)" stroke="#3A3F41"/>
  <path d="M741 926.5a185.499 185.499 0 0 0-316.668-131.168A185.499 185.499 0 0 0 370 926.5h371Z" fill="#3A3F41"/>
  <path stroke="#3A3F41" d="M.5 370.5h370v370H.5zM741.5 370.5h370v370h-370z"/>
  <path fill="red" d="M0 370h185v185H0z"/>
  <path d="m928.5 560 106.09 182.25H822.412L928.5 560Z" fill="#3A3F41"/>
  <path d="m928.5 372 106.09 182.25H822.412L928.5 372ZM556.5 818l106.088 182.25H450.412L556.5 818Z" fill="red"/>
  <path stroke="#3A3F41" d="M741.5 370.5V.5h370v370z"/>
  <path d="m929 183.5 182.25-106.088v212.176L929 183.5Z" fill="red"/>
</svg>
